<?xml version="1.0" encoding="utf-8"?>
<!-- Generator: Adobe Illustrator 27.8.1, SVG Export Plug-In . SVG Version: 6.00 Build 0)  -->
<svg version="1.1" id="Layer_1" xmlns="http://www.w3.org/2000/svg" xmlns:xlink="http://www.w3.org/1999/xlink" x="0px" y="0px"
	 viewBox="0 0 1000 1000" style="enable-background:new 0 0 1000 1000;" xml:space="preserve">
<style type="text/css">
	.st0{fill:#FFFFFF;}
	.st1{fill-rule:evenodd;clip-rule:evenodd;fill:url(#SVGID_1_);}
	.st2{fill-rule:evenodd;clip-rule:evenodd;fill:url(#SVGID_00000096017194173560238970000006755743038733110449_);}
	.st3{fill-rule:evenodd;clip-rule:evenodd;fill:url(#SVGID_00000124852588937504466920000008935529554101807511_);}
	.st4{fill-rule:evenodd;clip-rule:evenodd;fill:url(#SVGID_00000126291106635448087810000009446781686449525122_);}
	.st5{fill-rule:evenodd;clip-rule:evenodd;fill:url(#SVGID_00000050658349353289555640000013365661883030682008_);}
	.st6{fill-rule:evenodd;clip-rule:evenodd;fill:#038CFF;}
	.st7{fill-rule:evenodd;clip-rule:evenodd;fill:#00C1EA;}
	.st8{fill-rule:evenodd;clip-rule:evenodd;fill:#0070E0;}
	.st9{fill-rule:evenodd;clip-rule:evenodd;fill:#FFFFFF;}
	.st10{fill:#03BEF2;}
	.st11{fill:#00E8F1;}
	.st12{fill-rule:evenodd;clip-rule:evenodd;fill:#B52036;}
</style>
<rect x="-36.5" y="-36.5" width="1073" height="1073"/>
<g>
	<path class="st0" d="M310.8,367.4c0,0-8.3-21.6-16-32.8c0,0-1.8-4.7-9-2.9l-25.3,6.2c0,0-5.7,0.6-6.7,7.6l-3.6,14
		c0,0-0.3,3.9-3.7,3.7l-8.9-0.6c0,0-4.7-0.9-5.1,3.4c0,0-3.4,19.7-3.6,30.1c0,0,0.3,2.3,4.8,7.5l19.9,25.3c0,0,7.9,10.4,1.7,24.5
		c0,0-28.5,65.3-59.7,128.4c-0.2,0.4-2.4,4.6,1.8,7.2l56.3,29.1c0,0,6.2,3.7,9-1.3l26.9-50.4c0,0,1.7-3.7,6.2-1.9l7.4,5.3
		c1.1,0.8,2.1,1.9,2.8,3.1c0.7,1.3,1.4,3.3,1.6,5.8l2,21.8c0,0,0.1,4.2,3.3,4.1h5.3c0.9,0,1.9,0.2,2.7,0.6c1.3,0.6,2.7,1.9,2.7,4.4
		v53.8c0,0-0.5,4.6,4.7,5.2l322.5,0.9c0,0,3.7-0.1,5.3-4.2l25.9-54c0,0,1.3-4.7,7-5.2l21.5-2.2c0,0,4.3-0.9,4.8,3.8l1.1,21.8
		c0.1,1.4,0.6,2.7,1.5,3.7c2.1,2.2,6.6,5.2,15.1,2.5l68.2-21.6c0,0,6.7-1.5,1.4-8.9c-5.2-7.2-11-10-22.8-14.9
		c-0.5-0.2-0.8-0.8-0.6-1.3l13.5-36.8c0,0,7.7-13.8-10.5-13.7l-22.5-1.9c0,0-8.6,0.3-8.6-8l-16.3-142.2c0,0,0.3-8.4-11.2-7.1
		c-11.4,1.3-96.9,38.9-96.9,38.9s-18.3,8.3-22.8,8.3c-0.9,0-1.3-0.3-0.9-1.1c1.5-3,19.3-20.5,27.8-34.7c0,0,2.4-2.5-0.1-6.7
		c0,0-29.2-38.5-53.3-52.6c0,0-3.5-2.4-7.2,0.4c0,0-37,29-51.4,52.5c0,0-2.7,3.3,0,7.6c3.2,5,13.2,20.4,36.6,40.4c0,0,5.8,5-1,5.3
		c0,0-13.3,0.4-18.3,4.2c-5,3.8-5.1,15.4-5.1,15.4s0,2.2-2.7-0.6c-2.7-2.8-21-21.5-21-21.5s-4.2-5.5-12.6-1.4s-38.9,30.2-38.9,30.2
		s-3.4,3.8-7.9-0.5c-4.4-4.3-31.5-36.1-39.5-33.5c-8,2.5-24.6,19.6-24.6,19.6s-2.4,2.2-2.3-1.3c0.1-3.4,0.5-8.4,0.5-8.4
		s0.9-6.9-8-10c-9.3-3.3-54-19.8-61-23.7c-7-3.9-9.4-7.6-9.4-13.8c0-6.2,5.7-10.8,7.9-14.1C314,374.7,310.8,367.4,310.8,367.4z"/>
	<g>
		<g>
			<linearGradient id="SVGID_1_" gradientUnits="userSpaceOnUse" x1="524.2822" y1="466.5005" x2="524.2822" y2="582.0414">
				<stop  offset="0" style="stop-color:#FD5B4E"/>
				<stop  offset="1" style="stop-color:#FDD92F"/>
			</linearGradient>
			<path class="st1" d="M530.5,513c-0.1-2.7-0.5-5.4-1.1-8c-0.4-2.1-1.2-4.2-2.2-6.1c-0.3-0.6-0.6-1.1-1-1.6c-1.8-2.4-4-2.2-5.6,0.4
				c-0.3,0.5-0.6,1.1-0.8,1.7c-1.4,3.7-1.9,7.7-1.7,11.7c0.2,2.4,0.5,4.7,1,7.1c0.2,0.8,0.4,1.7,0.6,2.5c0.7,2.6,1.7,5.1,3.1,7.5
				c0.5,1,1.2,1.8,2.1,2.4c0.3,0.2,0.6,0.3,1,0.3c0.4,0,0.7-0.1,1-0.3c0.8-0.6,1.4-1.4,1.7-2.4c0.6-1.5,1.1-3,1.3-4.6
				c0.5-2.5,0.6-5.1,0.5-7.7C530.5,514.8,530.5,513.9,530.5,513z"/>
			
				<linearGradient id="SVGID_00000000924057967841289360000013381746780202428043_" gradientUnits="userSpaceOnUse" x1="579.6008" y1="466.5005" x2="579.6008" y2="582.0414">
				<stop  offset="0" style="stop-color:#FD5B4E"/>
				<stop  offset="1" style="stop-color:#FDD92F"/>
			</linearGradient>
			<path style="fill-rule:evenodd;clip-rule:evenodd;fill:url(#SVGID_00000000924057967841289360000013381746780202428043_);" d="
				M617.5,589.2c-0.1,0.6-0.5,1.2-1,1.6c-0.1,0.1-0.2,0.1-0.3,0.2c0,0,0,0,0,0c-0.4,0.2-0.9,0.4-1.5,0.4c-1,0-1.9-0.1-2.9-0.3
				c-14.8-2.4-29.6-4.9-44.3-8c-0.8-0.2-1.6-0.4-2.4-0.6c-0.9-0.2-1.7-0.7-2.3-1.3c-0.6-0.7-1-1.5-1.2-2.4c-0.2-0.8-0.3-1.7-0.5-2.5
				c-0.1-0.7-0.2-1.3-0.4-2c-1.6-8.4-3.3-16.8-4.9-25.1c-0.3-1.8-0.7-3.6-1-5.4c-0.5-2.7-1-5.4-1.5-8.1c-0.4-2-0.1-4.2,0.9-6
				c1-1.8,1.9-3.7,2.8-5.5c2.2-4.5,4-9.3,5.3-14.1c0.6-2.3,1-4.6,1.1-6.9c0.7-5.7,0.6-11.5-0.3-17.2c-0.3-1.2-0.6-2.4-1.1-3.6
				c-0.1-0.5-0.4-0.9-0.8-1.2c-0.4-0.3-0.9-0.5-1.4-0.5c-0.4,0-0.7,0-1.1,0c-2.2,0.1-4.3-0.1-6.5-0.3c-0.7-0.1-1.3-0.1-2-0.1
				c0,0,0,0-0.1,0c-0.6,0-1.3-0.1-1.9-0.1c-2.5-0.1-3.2-0.7-3.7-3.1c-0.9-3.8-1.4-7.6-1.9-11.4c-0.3-2.3-0.5-4.6-0.7-6.9
				c0-0.5-0.1-0.9-0.1-1.4c-0.1-0.5-0.1-0.9-0.1-1.4c0-0.5,0.1-1.1,0.5-1.5c0.3-0.4,0.8-0.8,1.3-0.9c0.7-0.2,1.4-0.4,2.1-0.5
				l4.1-0.6h0c11.3-1.8,22.7-3.5,34-5.2c5.7-0.8,11.4-1.6,17.2-2.3h0c1.6-0.2,3.1-0.4,4.7-0.6c2.8-0.3,3.3,0,3.8,2.9
				c0.4,3.1,1.9,23.6,1.9,23.9c0.1,3.1,0.7,13.7,1.1,20.9l0,0c0.1,2.4,0.3,4.5,0.3,5.7l0.2,3.2l0,0.5c0.4,8.6,1.4,28.4,1.6,32
				c0,0.9,0.2,3.2,0.4,6.3C615.7,554.7,617.6,588.6,617.5,589.2z"/>
			
				<linearGradient id="SVGID_00000098926315154746058030000017583407483581580449_" gradientUnits="userSpaceOnUse" x1="703.4611" y1="466.5005" x2="703.4611" y2="582.0414">
				<stop  offset="0" style="stop-color:#FD5B4E"/>
				<stop  offset="1" style="stop-color:#FDD92F"/>
			</linearGradient>
			<path style="fill-rule:evenodd;clip-rule:evenodd;fill:url(#SVGID_00000098926315154746058030000017583407483581580449_);" d="
				M786.3,605.8c0,0.2,0,0.4-0.1,0.5c-0.1,0.2-0.2,0.3-0.3,0.4c-0.4,0.5-0.9,0.9-1.5,1.1c-0.8,0.3-1.7,0.6-2.6,0.8
				c-0.4,0.1-0.7,0.2-1.1,0.3c0,0,0,0,0,0c-12.7,3.7-25.3,7.4-37.9,11.3c-2.3,0.7-4.7,1.4-7,2.1c-0.8,0.2-1.6,0.5-2.3,0.7
				c-0.4,0.1-0.9,0.3-1.3,0.4c-2.2,0.5-3-0.2-3-2.4v-5.1h-0.1c0.1-2.5,0.3-5,0.4-7.5c0.2-3.7,0.4-7.4,0.6-11.1
				c0.2-1.8,0.2-3.5,0.2-5.4c0-1.9-0.4-2.3-2.2-2.3c-1,0-1.9,0-2.9,0.1c-2.1,0.2-4.1,0.4-6.2,0.3c-5.7,0.1-11.3,0.5-16.9,1
				c-1.9,0.2-3.8,0.3-5.7,0.4c-1.4,0.1-2.8,0.2-4.2,0.3c-1.8,0.1-3.7,0.3-5.5,0.5c-1.4,0.1-2.8,0.2-4.1,0.4c-0.5,0-0.9,0.1-1.4,0.1
				c-2,0.2-3.9,0.3-5.9,0.5c-4.3,0.3-8.5,0.5-12.9,0.7c-0.5,0-1.1,0-1.6-0.1c-0.3,0-0.6-0.1-0.9-0.3c-0.2-0.2-0.4-0.5-0.5-0.8
				c-0.3-1-0.6-1.9-0.8-2.9c-3-12.7-6.1-25.4-9.1-38c-4-16.6-8-33.2-12-49.8l-0.5-2.1c-2.7-11-5.3-22-8.1-33
				c-1.5-6.1-3.2-12.3-4.9-18.4l0,0c-0.3-1.2-0.7-2.5-1-3.7c0-0.1,0-0.1,0-0.2c-0.2-0.8-0.4-1.6-0.7-2.5c-0.2-0.8-0.5-1.5-0.7-2.3
				c-0.2-0.7-0.4-1.3-0.6-2.1c-0.5-1.6-0.3-1.9,1.2-2.5c1.5-0.6,3-1.2,4.5-1.8h0c2-0.8,4-1.6,6-2.4c13.6-5.6,27.2-11.3,40.8-16.9
				l29.4-12.2l15.9-6.7c0.2-0.1,0.4-0.2,0.6-0.2c0.8-0.3,1.6-0.7,2.4-0.9c1.2-0.4,1.8,0,2.1,1.3c0,0,0.6,4.4,1.4,11.5l0,0.1
				c1.1,8.9,2.8,21.9,4.5,35.7c-0.5,0.3-1.3,0.7-1.9,1v0c-0.6,0.3-1.1,0.6-1.3,0.7c-4.3,2.5-8.4,5.3-12.2,8.4
				c-2.6,2.4-4.9,5-6.8,7.9c-0.2,0.4-0.5,0.7-0.7,1.1c-0.3,0.5-0.6,1-0.9,1.4v0c-1.3,2.1-2.4,4.2-3.5,6.4c0,0,0,0,0,0
				c0,0,0,0.1-0.1,0.2c-0.1,0.2-0.2,0.4-0.3,0.6c-0.2,0.4-0.4,0.7-0.6,1c-0.3,0.5-0.8,0.9-1.4,1.1c-0.6,0.2-1.2,0.2-1.8,0.1
				c-0.8-0.2-1.7-0.6-2.4-1c-2-1-4-1.9-6.1-2.6c-2.9-1.1-6-1.7-9.1-1.7c-0.5,0-1,0-1.6,0c-1.1,0.2-1.8,1-1.7,1.8
				c0.1,0.8,3.4,11,5,15.1c0,0,0.1,0.3,0.3,0.9l0,0v0c1.1,3.1,4.5,13.2,4.9,13.8c0.1,0.2,0.3,0.4,0.5,0.5c0.2,0.1,0.4,0.2,0.6,0.2
				c0.2,0,0.5,0,0.7,0c0.2-0.1,0.4-0.1,0.6-0.3c0.5-0.3,0.9-0.6,1.3-0.9c2.4-1.9,4.5-4.2,6.1-6.9c1.2-1.9,2.3-3.8,3.3-5.8
				c0.4-0.8,0.8-1.5,1.4-2.2c0.4-0.5,0.9-0.9,1.5-1c0.6-0.2,1.2-0.2,1.8,0.1c0.4,0.1,0.7,0.3,1.1,0.4c0.2,0.1,0.4,0.2,0.7,0.3
				c0.2,0.1,0.2,0.1,0.2,0.1s0,0,0,0c2.7,1.3,5.5,2.5,8.3,3.5c3.7,1.4,7.5,2.2,11.5,2.5c3,0.2,5.9,0.1,8.9-0.1
				c0.4,3,0.7,5.9,1.1,8.4c0,0,0,0,0,0.1c1,8.3,1.7,13.6,1.7,13.7c0.2,2.3,0,2.7-2.1,3.5c-3.9,1.5-7.9,3-11.9,4.5
				c-7.3,2.7-14.6,5.4-21.9,8.4c-1.2,0.5-2.3,1-3.4,1.6c-0.2,0.1-0.3,0.2-0.5,0.3c-0.1,0.1-0.2,0.3-0.3,0.4
				c-0.1,0.2-0.1,0.4-0.1,0.5c0,0.2,0,0.4,0.1,0.5c0,0.2,0.1,0.4,0.1,0.5c0.5,1.7,1,3.3,1.5,5c0.9,3,1.8,5.9,2.7,8.9
				c0.1,0.6,0.5,1.2,1,1.6c0,0,0,0,0,0c0,0,0,0,0,0c0.4,0.3,0.9,0.5,1.5,0.6c0.1,0,0.1,0,0.2,0l0.5,0c1.8,0.1,3.6,0.3,5.5,0.3h66.4
				c1,0,1.9,0,2.9,0.1c0.2,0,0.4,0,0.5,0.1c0.2,0.1,0.3,0.2,0.4,0.3c0.1,0.1,0.2,0.3,0.2,0.5s0,0.4,0,0.5c-0.1,0.5-0.3,1-0.4,1.6
				c-0.8,2.6-1.6,5.2-2.5,7.8c-0.1,0.3-0.2,0.6-0.3,1c-1.1,3.1-2.2,6.1-3.4,9.1c-1.8,4.7-3.6,9.4-5.4,14.1v0
				c-0.9,2.3-1.7,4.5-2.6,6.8c-0.4,1-0.7,2-0.8,3.1c-0.1,0.5,0,1.1,0.3,1.6c0.2,0.5,0.6,0.9,1.1,1.2c0,0,0,0,0.1,0l0,0
				c0.2,0.1,0.4,0.2,0.6,0.3h0c0.9,0.5,1.8,1,2.7,1.4c2,0.9,4,1.7,6,2.5h0c0.8,0.4,1.6,0.7,2.5,1c1.8,0.7,3.4,1.6,5,2.6
				c0.4,0.3,0.9,0.6,1.3,1c0.1,0.1,0.2,0.3,0.3,0.4C786.3,605.4,786.3,605.6,786.3,605.8z"/>
			
				<linearGradient id="SVGID_00000183239544681669239400000013096222482662055353_" gradientUnits="userSpaceOnUse" x1="290.2031" y1="466.5005" x2="290.2031" y2="582.0414">
				<stop  offset="0" style="stop-color:#FD5B4E"/>
				<stop  offset="1" style="stop-color:#FDD92F"/>
			</linearGradient>
			<path style="fill-rule:evenodd;clip-rule:evenodd;fill:url(#SVGID_00000183239544681669239400000013096222482662055353_);" d="
				M368.9,451.1c0.5-4.9,0.8-8,0.9-8.6c0.3-2.8,0-3.2-2.8-4.2c-1.3-0.5-7.7-2.6-15.5-5.2h0c-12.9-4.3-29.5-9.8-31.6-10.6
				c-5.9-2.1-11.5-4.7-16.9-7.8c-1.6-1-3.1-2.1-4.4-3.4c-2.3-2.2-4.1-4.9-5.4-7.9c-0.9-1.9-1.4-4-1.5-6.1c-0.1-1.7-0.1-3.5,0-5.2
				c0.2-4.5,1.8-8.8,4.5-12.4c1.4-1.8,3-3.4,4.6-5l0,0c1.7-1.7,1.7-1.7,0.6-4c-0.9-1.7-1.8-3.4-2.7-5c-4-6.9-8-13.8-12.1-20.8
				c-0.8-1.5-1.3-1.6-2.9-1.1c-0.3,0.1-0.5,0.2-0.8,0.3c-5.2,1.9-10.3,3.8-15.3,6.2c-0.5,0.2-0.9,0.5-1.3,0.9
				c-0.4,0.4-0.7,0.8-0.8,1.3c-3.1,7.7-5.4,15.8-6.9,23.9c-0.5,3.1-1.2,2.9-3.2,2.2c-0.1,0-0.2-0.1-0.4-0.1c-2.5-0.8-5-1.6-7.5-2.4
				c-0.8-0.2-1.5-0.5-2.3-0.7c-0.5-0.2-1-0.3-1.6-0.4c-0.3-0.1-0.5-0.1-0.8-0.1c-0.3,0-0.5,0.1-0.8,0.3c-0.2,0.1-0.4,0.3-0.6,0.5
				c-0.2,0.2-0.3,0.5-0.3,0.7c-0.2,0.7-0.4,1.4-0.4,2.1c-0.3,2.3-0.6,4.6-0.8,7c-0.2,1.8-0.4,3.5-0.6,5.3c-0.1,0.6-0.1,1.2,0.1,1.8
				c0.1,0.6,0.4,1.1,0.8,1.6c0.8,1.1,1.8,2.2,2.7,3.2c0.5,0.5,0.9,1,1.4,1.5c1.2,1.3,2.4,2.7,3.5,4v0c1.1,1.2,2.2,2.5,3.2,3.7
				c1.8,2.1,3.6,4.1,5.5,6.2c5.8,6.5,11.7,12.9,17.7,19.2c0.6,0.6,1,1.2,1.4,1.8c0.7,1.2,0.8,2.5-0.1,4c-0.2,0.5-0.4,1-0.6,1.5
				c-1.9,5.3-3.9,10.6-6.2,15.8c-1.5,3.3-2.9,6.6-4.4,10v0c-1.9,4.3-3.7,8.6-5.7,12.8c-2.4,5.4-5,10.7-7.5,16.1
				c-1.3,2.7-2.5,5.3-3.8,8c-4,8.4-7.9,16.9-11.9,25.3c-1.3,2.9-2.7,5.7-4,8.6c-2.6,5.6-5.2,11.2-7.9,16.7
				c-2.2,4.6-4.4,9.2-6.6,13.8l0,0c-1.5,3-2.9,6.1-4.4,9.1c-0.7,1.6-1.5,3.1-2.1,4.7c-0.3,0.8-0.3,1.3,0,1.8
				c0.1,0.2,0.4,0.4,0.7,0.6c1,0.6,29.8,14.5,38.3,18.7l0.2,0.1l0.1,0l0.1,0l0,0c1.1,0.5,1.8,0.9,2,1c0.2,0.2,0.5,0.3,0.8,0.4
				c0.3,0.1,0.6,0.1,0.9,0c0.3-0.1,0.6-0.2,0.8-0.4c0.2-0.2,0.5-0.4,0.6-0.7c0.2-0.4,0.5-0.8,0.7-1.2c0.7-1.5,11.3-23.8,21.6-45.8
				l0,0l0.1-0.2l0-0.1c10.2-21.6,20.1-42.7,20.3-42.9c3.4-7.1,6.8-14.2,10.2-21.2c0.3-0.6,0.6-1.1,0.9-1.7c0.1-0.3,0.4-0.5,0.6-0.7
				c0.3-0.1,0.6-0.2,0.9-0.1c1.7,0.4,3.3,0.7,5,1.1c0.4,0.1,0.7,0.3,0.9,0.5c0.3,0.3,0.4,0.6,0.5,0.9c0.3,1.2,0.4,2.3,0.4,3.5
				c0,3.4,0.4,24.3,0.6,26.3c0.1,1.5-0.3,2.6-1.2,3.3c-0.4,0.4-1,0.7-1.6,1c-4.9,2.4-9.7,4.9-14.6,7.4c-1.8,0.9-3.6,1.9-5.4,2.8
				c-1.4,0.7-2.9,1.5-4.3,2.3c-0.5,0.3-0.9,0.5-1.4,0.8c-0.5,0.3-0.9,0.6-1.3,0.9c-0.2,0.2-0.4,0.5-0.4,0.8c0,0.3,0.1,0.6,0.3,0.9
				c0.7,0.8,1.5,1.6,2.3,2.3c2.2,1.8,4.3,3.5,6.5,5.2c0,0,0,0,0.1,0c2.1,1.6,4.1,3.3,6.2,4.9c4.9,3.9,9.8,7.7,14.8,11.5
				c0.6,0.4,1.1,1,1.4,1.6c0.4,0.6,0.5,1.3,0.6,2.1c0.1,1.9,0.2,3.8,0.4,5.7c0.2,2.8,0.4,5.7,0.5,8.5c0.1,1.5,0.2,3,0.4,4.5
				c0.1,0.9,0.2,1.7,0.2,2.6c0.1,1.2,0.6,1.6,1.8,1.5l0.1,0c2.1-0.1,29-1.4,29.2-1.4c1.5-0.1,1.7-0.4,2.1-1.7
				c0.2-0.6,0.3-1.2,0.4-1.9c0.2-1.9,3.2-30.6,6.4-61.8c1.9-18.9,4-38.7,5.6-54.1C367.7,462.4,368.4,455.9,368.9,451.1z"/>
			
				<linearGradient id="SVGID_00000087384951870344678310000005940127426489709446_" gradientUnits="userSpaceOnUse" x1="460.0792" y1="466.5005" x2="460.0792" y2="582.0414">
				<stop  offset="0" style="stop-color:#FD5B4E"/>
				<stop  offset="1" style="stop-color:#FDD92F"/>
			</linearGradient>
			<path style="fill-rule:evenodd;clip-rule:evenodd;fill:url(#SVGID_00000087384951870344678310000005940127426489709446_);" d="
				M553.4,574c0,0.1,0,0.1,0,0.2c0,0,0,0.1,0,0.1c-0.1,0.3-0.2,0.6-0.4,0.9c-0.2,0.2-0.4,0.5-0.7,0.6c-1.3,1.1-2.8,2-4.3,2.9
				c-1.6,1.2-3.3,2.4-4.9,3.6l0,0l0,0h0v0h0c-4,2.9-8.1,5.9-12.1,8.8c-3.5,2.5-7.1,5-10.7,7.5l0,0c-1.4,1-2.8,1.9-4.1,2.9
				c-0.4,0.3-0.8,0.5-1.1,0.7c-0.7,0.4-1.4,0.7-2.2,0.6c-0.8,0-1.5-0.3-2.2-0.8c-0.4-0.3-24.2-21.1-34.8-30.4
				c-2.4-2.1-4.1-3.6-4.8-4.2l-1.3-1.1c-3.1-2.7-6.2-5.4-9.3-8.2l-0.2-0.1c-1.8-1.6-2.2-1.9-4.5,0.1c-5.5,4.9-10.9,10-16.2,15.1
				c-2.4,2.3-13,12-19.6,18c-2.4,2.2-4.3,3.9-5.1,4.6c-0.6,0.5-1.1,1-1.7,1.6v0c-1.4,1.3-2.9,2.6-4.3,3.9c-1.5,1.3-2.4,1.3-4.1,0.1
				c-0.1-0.1-0.3-0.2-0.4-0.3c-0.1-0.1-0.1-0.1-0.2-0.2c-1.5-1.4-12-11.2-21.1-19.7l-0.1-0.1l-0.2-0.2l-0.1-0.1
				c-6-5.6-11.3-10.5-13-12.2c-0.7-0.7-1.4-1.4-2.1-2.1c-0.7-0.7-1.1-1.7-1.1-2.7c0-0.1,0-0.2,0-0.2c0-0.1,0-0.1,0-0.2
				c0-0.8,0.3-1.6,0.7-2.3c0.6-1,1.3-1.9,2.2-2.8c1.4-1.5,34.1-30.5,38.2-34.1c0.4-0.3,0.7-0.6,1.1-0.9l0,0c1.5-1.3,2.9-2.6,4.3-3.9
				c0.4-0.4,0.6-0.8,0.6-1.2c0-0.4-0.2-0.7-0.6-1.1c-0.7-0.8-1.5-1.5-2.3-2.2l-2.1-1.8l0,0c-5.5-4.7-11-9.4-16.4-14.2
				c-2.8-2.4-5.6-5-8.4-7.5l0,0l0,0c-1-0.9-2-1.8-3-2.7c-1.9-1.7-3.8-3.4-5.6-5c-0.5-0.4-0.9-0.8-1.3-1.3c-0.2-0.2-0.3-0.4-0.4-0.6
				c0-0.1-0.1-0.1-0.1-0.2c-0.7-1.1-0.5-1.8,0.6-3.2c0.2-0.2,0.3-0.4,0.5-0.6c1.1-1.2,2.2-2.3,3.3-3.5c2.7-2.9,5.4-5.9,8.2-8.6
				c3.8-3.6,7.6-7.1,11.5-10.6c2-1.8,4-3.6,6-5.4c0.9-0.8,1.8-1.7,2.7-2.6l0,0c0.4-0.4,0.9-0.9,1.3-1.3c0.1-0.1,0.3-0.3,0.4-0.4
				c0.3-0.3,0.6-0.6,1-0.9c0.2-0.3,0.5-0.5,0.9-0.7c0.3-0.2,0.7-0.2,1.1-0.2c0.4,0,0.7,0.1,1.1,0.2c0.3,0.1,0.6,0.4,0.9,0.7
				c1.2,1.1,2.4,2.4,3.5,3.6l0,0c0.4,0.4,0.8,0.8,1.1,1.2c0.2,0.2,1.1,1.1,2.4,2.5c3,3.2,8.2,8.7,10.9,11.6c0.1,0.1,2.8,2.9,6,6.4
				c2.5,2.7,5.4,5.7,7.8,8.3c2.4,2.6,4.4,4.6,5.1,5.3c0.4,0.4,0.9,0.9,1.4,1.3c0.4,0.3,0.7,0.5,1.1,0.5h0c0.3,0,0.6-0.2,1.1-0.5
				c1.3-1.1,2.6-2.2,3.9-3.3c3.4-3,14.7-12.9,24-21.1c4.9-4.3,9.2-8.1,11.5-10.1c0.6-0.6,1.3-1.1,1.9-1.7v0c1.1-1,2.2-2,3.4-2.9
				c0.5-0.5,1.1-0.9,1.8-1.2c2.1-1,3.4-0.6,5.4,1.4c2,1.9,28.8,29.6,31.1,32.7c1.2,1.6,1.7,2.5,1.3,3.4c0,0,0,0.1,0,0.1
				c-0.3,0.6-0.9,1.2-1.9,2.1c-1.3,1.2-40.7,33.7-42,34.7c-0.5,0.3-0.8,0.8-1,1.4c-0.2,0.5-0.2,1.1-0.1,1.6c0,0.1,0,0.1,0,0.2
				c0.5,2.7,1.3,5.2,2.6,7.6c2.2,4.3,5.2,8,9,11c3.9,3.2,8.5,5.4,13.4,6.7c2.5,0.5,4.9,0.8,7.4,0.9c3.1-0.1,6.1-0.6,9-1.5
				c2.8-0.9,3-0.7,4.4,1.6c4.3,7.3,8.7,14.5,13,21.8l0.1,0.2l0.1,0.2l0,0c0.5,0.8,1,1.7,1.4,2.6c0.2,0.3,0.3,0.6,0.4,0.9
				C553.4,573.5,553.4,573.7,553.4,574z"/>
		</g>
		<g>
			<g>
				<path class="st6" d="M654.2,615L654.2,615L654.2,615L654.2,615L654.2,615L654.2,615L654.2,615L654.2,615L654.2,615L654.2,615
					L654.2,615L654.2,615L654.2,615c-1.8,0-3.6,0.1-5.4,0c-0.8-0.1-1.6,0.1-2.3,0.6c-0.7,0.4-1.2,1.1-1.4,1.9
					c-0.7,1.6-1.4,3.1-2.2,4.7c-0.3,0.6-0.6,1.3-0.9,1.9c-1.3,2.6-1.6,2.7-3.4,0.5c-0.5-0.7-1-1.3-1.6-1.9l0,0
					c-1.4-1.8-2.9-3.6-4.3-5.5c-0.4-0.7-1-1.2-1.7-1.6c-0.7-0.4-1.5-0.5-2.3-0.5c-2.4,0.1-4.8,0-7.2,0l0,0l0,0h0l0,0l0,0h0l0,0l0,0
					h0l0,0h0c-1.2,0-2.4,0-3.6,0c0,0-0.1,0-0.1,0c0,0-0.1,0-0.1,0c-0.8,0-2.1,0-1.8,1c3.1,4.5,6.5,8.8,9.8,13.1l0,0
					c2.5,3.2,5,6.4,7.4,9.7c1.3,1.4,0.5,2.8-0.2,4.1v0l0,0c-0.1,0.2-0.2,0.3-0.2,0.5l0,0.1l-5.1,10.2c-0.1,0.2-0.2,0.4-0.3,0.7
					c-0.5,1-1.3,2.4,0.3,2.5h7h6.5c0.7,0.1,1.4-0.1,2-0.5c0.6-0.4,1-1,1.3-1.7c2.7-5.6,5.3-11.2,7.9-16.8c3.2-6.7,6.4-13.5,9.5-20.2
					c0-0.1,0.1-0.1,0.1-0.2l0,0l0,0c0.3-0.7,0.8-1.8-0.1-2.1C659.2,614.9,656.7,615,654.2,615z"/>
				<path class="st6" d="M391.5,615.2c3.3-0.2,6.6-0.2,10,0c1.2,0.1,1.2,1.7,1.2,2.8c0,5.4,0.1,10.7,0.3,16.1
					c0.2,6.7,0.4,13.3,0.2,20c0,2.5-0.4,2.8-2.8,2.8H393c-0.6,0-1.1-0.1-1.6-0.3c-0.5-0.3-0.9-0.6-1.3-1.1c-1.5-2-2.9-4.1-4.3-6.2
					l0,0c-2.3-3.3-4.6-6.7-7.1-9.8c-0.7-0.5-0.8,0.7-0.8,1.5c0,0.2,0,0.4,0,0.5v11.9c0,3.5-0.1,3.6-3.6,3.6c-1.9,0-3.5,0-4.8,0
					c-3.4,0.1-4.9,0.1-5.6-0.7c-0.6-0.7-0.5-2-0.3-4.4c0.1-1.5,0.3-3.5,0.3-6.1c0.1-3.6,0.1-7.3,0.1-10.9
					c-0.1-6.1-0.1-12.2,0.6-18.2c0.1-1.4,1.4-1.5,2.5-1.5h7.3c2.1-0.1,3,1.5,3.9,3.1c0.3,0.6,0.7,1.1,1.1,1.6
					c3.1,4.9,6.1,9.7,9.2,14.6c0.1,0.1,0.2,0.3,0.3,0.5l0,0l0,0c0.3,0.5,0.7,1.1,1,1.1c0.1-0.1,0.4-0.2,0.4-0.3
					c0.1-0.8,0.1-1.6,0.1-2.4v-14.6c0-0.3,0-0.6,0-0.9C390.3,616.6,390.3,615.4,391.5,615.2z"/>
				<path class="st6" d="M521.1,615c1.8,0,3.6,0,5.4,0.1c1.3,0.1,1.3,1.5,1.3,2.5l0,0.1c0,0.1,0,0.1,0,0.2c0.1,3.9,0.1,7.8,0.2,11.7
					v0l0,0l0,0l0,0v0l0,0l0,0v0l0,0l0,0l0,0v0l0,0c0.1,7.8,0.3,15.7,0.3,23.5c0,0.1,0,0.3,0,0.5c0,1.3,0,3-1.7,2.9h-9.2
					c-0.5,0-0.9-0.2-1.3-0.4c-0.4-0.2-0.7-0.6-0.9-1c-3.6-5.1-7.3-10.2-10.9-15.4c0,0-0.1-0.1-0.1-0.1c-0.2-0.3-0.5-0.7-0.9-0.7
					c-0.1,0-0.1,0.1-0.2,0.1c-0.1,0.1-0.1,0.1-0.1,0.2c-0.2,3.4-0.2,6.8-0.2,10.2v0v0v0v0v0c0,0.9,0,1.8,0,2.8c0,4.3,0,4.3-4.4,4.3
					c-0.9,0-1.8,0-2.7,0c-1.8,0-3.6,0-5.4,0c-1.4-0.1-1.9-0.5-1.9-2c0.5-11.7,0.5-23.5,0.5-35.3v0c0-0.3,0-0.6,0-1v0
					c0-1.5,0-3.3,1.9-3.3c1.3-0.1,2.6-0.1,4,0l0,0c1.3,0,2.6,0,3.8,0c0.8-0.1,1.6,0.1,2.3,0.5s1.3,1,1.6,1.7
					c0.7,1.1,1.4,2.2,2.1,3.3v0c3.3,5.3,6.6,10.6,10.1,15.8l0.6-0.2v-17.7c0-3.2,0.2-3.4,3.3-3.4C519.5,615,520.3,615,521.1,615z"/>
				<path class="st6" d="M572.5,615h33.7c3.3,0,3.7,0.3,3.7,3.5c0,1,0,1.9,0,2.9v0l0,0l0,0v0l0,0v0l0,0v0l0,0l0,0v0
					c0,2.2,0,4.4-0.1,6.6c-0.1,1.9-1.8,1.9-3.3,1.9c-0.4,0-0.8,0-1.1,0l-0.1,0c-2.1,0.1-4.2,0.2-6.4,0.4c-1.6,0.1-2.1,0.5-2.1,2.2
					c-0.2,3.8-0.3,7.7-0.4,11.6c-0.1,3.1-0.1,5.5,0,7.3v0l0,0v0l0,0v0c0.1,2.8,0.1,4.2-0.6,4.9c-0.7,0.7-2.2,0.7-5.4,0.6
					c-1.7,0-3.9-0.1-6.6,0c-1.1,0-2.7-0.2-2.6-1.6c-0.1-4,0.2-8,0.5-12c0.3-4,0.5-7.9,0.5-11.9c-0.1-1.6-1.8-1.4-3.1-1.3
					c-0.3,0-0.5,0.1-0.7,0.1c-2,0.2-3.9,0.3-5.9,0.2c-1.5-0.1-2-0.5-2-1.9c-0.1-3.8-0.1-7.6,0-11.3C570.5,615.5,571,615,572.5,615z"
					/>
				<path class="st6" d="M444.5,615.1h-12.7h-12.1c-0.2,0-0.5,0-0.7,0c-1.2,0-2.7,0-2.8,1.4c-0.2,5.8-0.2,11.6-0.2,17.4l0,0v0l0,0
					l0,0l0,0l0,0v0l0,0l0,0c0,3.7,0,7.4,0,11.1c0,1.4-0.1,2.7-0.2,4l0,0c-0.1,2-0.3,3.9-0.1,5.9c0,1.2,0.6,1.5,1.7,1.6
					c1.1,0,2.3,0,3.4,0h0c2.9,0,5.8,0.1,8.7-0.2c0.9-0.2,0.9-1.3,0.9-2c-0.2-2.7-0.2-5.4-0.2-8.1c0-1.1,0-2.1,0-3.2
					c0-2.5,0.3-2.8,2.8-2.8c0.7,0,1.3,0,1.9,0c2.2,0,3.4,0,4-0.5c0.7-0.6,0.6-2,0.5-5c0-0.2,0-0.5,0-0.7c0-1.3-0.5-1.8-1.8-1.8
					s-3.1-0.1-4.6-0.1c-2.8,0-3.5-0.2-3.1-3.8c0.1-1.5,1.8-1.5,3-1.5c0.2,0,0.4,0,0.5,0c1.5,0,3.1,0,4.6,0h0l0,0l0,0l0,0l0,0h0l0,0
					l0,0l0,0c2.2,0,4.5,0,6.7-0.1c2.2-0.2,2.6-0.6,2.7-2.9c0-1.5,0-2.9,0-4.2v0v0v0c0-0.3,0-0.6,0-0.9c0-0.4,0-0.8,0-1.1
					C447.3,615.4,447,615.1,444.5,615.1z"/>
				<path class="st6" d="M543.5,615.1h11.3c1.6,0,2,0.5,2.2,2.2V635h-0.1c-0.1,2.4,0,4.9,0,7.4l0,0l0,0v0l0,0v0l0,0l0,0v0
					c0.1,4.3,0.2,8.7-0.5,13c-0.2,1-1.2,1.3-2.1,1.3h-10.8c-2.3,0.1-2.3-1.5-2.3-3.2c0-0.1,0-0.3,0-0.4c0-10.2,0-20.3,0.1-30.5
					c0-1.6,0.2-3.3,0.3-4.9c0-0.3,0.1-0.7,0.1-1C541.9,615.6,542.3,615.2,543.5,615.1z"/>
				<path class="st6" d="M472.7,615.1h-10.2c-2.6-0.2-2.6,1.3-2.6,3.2v0c0,0.1,0,0.2,0,0.3l0,0.1l0,0.1c0,0,0,0.1,0,0.1v16.7
					c0,2.6,0,5.1,0,7.7v0l0,0l0,0l0,0v0l0,0l0,0c0,4.1-0.1,8.1,0.2,12.2c0.1,1.1,1.4,1.2,2.4,1.2l0,0h10c2.1,0.1,2.8-0.6,2.7-2.7
					c0-1.4,0.1-2.9,0.1-4.3c0.3-11.1,0.6-22.3,0.2-33.4C475.2,615.1,473.8,615.1,472.7,615.1L472.7,615.1z"/>
				<path class="st6" d="M338.3,615.1h9.7c1.9,0.1,2.2,0.4,2.2,2.2v18.6c-0.1,2.7,0,5.4,0,8.1v0l0,0l0,0l0,0l0,0l0,0v0
					c0,3.9,0.1,7.7-0.2,11.6c-0.2,1.2-1.7,1.2-2.7,1.2h-10c-1.2,0-2.6-0.1-2.7-1.5c-0.2-4.7-0.2-9.5,0-14.3
					c0.3-4.9,0.3-9.8,0.3-14.6c0-2.7,0-5.3,0-8C335.1,615.3,335.4,615.1,338.3,615.1z"/>
			</g>
		</g>
		<path class="st7" d="M620.1,387.6C620.1,387.7,620.1,387.7,620.1,387.6c0,0.8-0.3,1.5-0.8,2c-5.6,7.3-11.7,14.3-18.2,20.8
			c-2.8,2.8-5.6,5.6-8.6,8.3c-4.9,4.6-10.1,8.9-15.4,13c-0.3,0.3-0.6,0.5-0.9,0.6c-0.3,0.1-0.7,0.2-1.1,0.2c-0.8,0-1.5-0.3-2-0.8
			c-15.8-12.2-29.9-26.3-42.1-42.1c-0.5-0.5-0.8-1.3-0.8-2c0-0.3,0-0.5,0.1-0.8c0-0.1,0.1-0.2,0.1-0.3c0.1-0.4,0.4-0.7,0.6-0.9
			c12.2-15.8,26.3-30,42.1-42.2c0.5-0.5,1.3-0.8,2-0.8c0.4,0,0.7,0.1,1.1,0.2c0.4,0.1,0.7,0.4,0.9,0.6
			c15.8,12.2,29.9,26.4,42.1,42.2c0.3,0.3,0.5,0.6,0.6,0.9C620,386.9,620.1,387.3,620.1,387.6z"/>
		<path class="st8" d="M620.1,387.7c0,0.7-0.3,1.4-0.8,1.9c-5.6,7.3-11.7,14.3-18.2,20.8c-2.8,2.8-5.6,5.6-8.6,8.3
			c-4.9,4.6-10.1,8.9-15.4,13c-0.3,0.3-0.6,0.5-0.9,0.6c-0.3,0.1-0.7,0.2-1.1,0.2c-0.8,0-1.5-0.3-2-0.8
			c-15.8-12.2-29.9-26.3-42.1-42.1c-0.5-0.5-0.8-1.3-0.8-2c0-0.3,0-0.5,0.1-0.8l40.1,14c0,0,5.6,3.1,11.2,0
			C585.7,398.6,609,391.2,620.1,387.7z"/>
		<path class="st9" d="M556.3,372.2c-1.6-0.7-2.4,0.2-2.8,1.5v0c-1.3,4.3-2,8.9-1.9,13.4c0.2,8.2,1.2,11.2,1.8,12.8
			c0.1,0.2,0.1,0.4,0.2,0.6c0.9,2,1.6,3.7,3.4,3c2.3-0.9,4.4-2.2,6.3-3.9c3.3-2.7,6.6-5.5,9.9-8.2c2.7-2.3,5.4-4.5,8.1-6.8
			c2.4-2.2,5-4.1,7.8-5.6c1.7-0.8,2.6-0.5,3.2,1.4c1.4,4.9,1.3,10.1-0.1,15c-0.4,1.6-1.3,1.9-2.8,1.2c-2.9-1.7-5.6-3.7-8.1-6
			c-1.1-0.9-1.1-0.9-2.1,0c-0.4,0.3-0.8,0.7-1.1,1.1c-0.6,0.6-0.5,0.9,0.1,1.5c4.7,3.8,9.5,7.6,15.1,9.9c2.1,0.9,2.9,0.5,3.6-1.7
			c1.3-4.4,1.9-9,1.8-13.6c0-4.9-0.6-9.7-1.9-14.4c-0.1-0.5-0.4-0.9-0.7-1.2c-0.4-0.3-0.8-0.5-1.3-0.5c-0.6,0-1.3,0.2-1.8,0.5
			c-1.9,1.1-3.7,2.3-5.5,3.7c-1.9,1.6-3.8,3.2-5.7,4.8c-6.7,5.7-13.5,11.4-20.9,16.1c-1.2,0.7-2,0.4-2.5-0.9
			c-1.8-5.2-1.8-10.9-0.1-16.2c0.1-0.3,0.2-0.5,0.5-0.7c0.2-0.2,0.5-0.2,0.8-0.1c1.7,0.4,3.3,1.3,4.6,2.4c-0.9,1-1.9,1.8-3,2.7
			c-0.7,0.6-1.4,1.3-2.1,1.9c-0.5,0.5-0.8,1.2-0.8,1.9c0,0.7,0.3,1.4,0.8,1.9c0.3-0.2,0.6-0.4,0.9-0.7c1.8-1.6,3.6-3.1,5.3-4.7l0,0
			c1.2-1.1,1.2-1.1,2.5,0c1,0.9,1.5,1.3,1.9,1.3c0.5,0,1-0.4,2-1.3c1-0.8,1-1.4,0-2.2c-0.4-0.3-0.9-0.7-1.3-1
			C566,377.7,561.6,374.2,556.3,372.2z"/>
		<path class="st10" d="M606,400.9l-4.9,9.6c-2.8,2.8-5.6,5.6-8.6,8.3l-13.1,6.2c0.1-0.4,4.1-12.5,4.9-14.1
			C585.3,409.2,606,400.9,606,400.9z"/>
		<path class="st11" d="M574.1,348.1l-6.6,25.4l-13.1-7.6c0,0,4.8-9,6.6-10.4C565.9,351.7,574.1,348.1,574.1,348.1z"/>
		<g>
			<path class="st12" d="M414.1,530.6l-47.4,32.7c0-0.1,0-0.1,0-0.2c0-0.8,0.3-1.6,0.7-2.3c0.6-1,1.3-1.9,2.2-2.8
				c1.4-1.5,34.1-30.5,38.2-34.1c0.4-0.3,0.7-0.6,1.1-0.9l0,0c1.5-1.3,2.9-2.6,4.3-3.9c0.4-0.4,0.6-0.8,0.6-1.2l2.1,5.8
				C417.1,529.2,414.1,530.6,414.1,530.6z"/>
			<path class="st12" d="M537.3,481.3c-7.6-5.2-30.9-21.1-34.1-23.3c-3.3-2.3-5.8-0.2-5.8-0.2l-42.7,26.8c-3.4,1.8-6.2-1-6.2-1
				s-31.4-22.9-34.8-25.6c-3.4-2.8-6.1,0-6.1,0l-34.1,23.4c0-0.1-0.1-0.1-0.1-0.2c-0.7-1.1-0.5-1.8,0.6-3.2c0.2-0.2,0.3-0.4,0.5-0.6
				c1.1-1.2,2.2-2.3,3.3-3.5c2.7-2.9,5.4-5.9,8.2-8.6c3.8-3.6,7.6-7.1,11.5-10.6c2-1.8,4-3.6,6-5.4c0.9-0.8,1.8-1.7,2.7-2.6l0,0
				c0.4-0.4,0.9-0.9,1.3-1.3c0.1-0.1,0.3-0.3,0.4-0.4c0.3-0.3,0.6-0.6,1-0.9c0.2-0.3,0.5-0.5,0.9-0.7c0.3-0.2,0.7-0.2,1.1-0.2
				c0.4,0,0.7,0.1,1.1,0.2c0.3,0.1,0.6,0.4,0.9,0.7c1.2,1.1,2.4,2.4,3.5,3.6l0,0c0.4,0.4,0.8,0.8,1.1,1.2c0.2,0.2,1.1,1.1,2.4,2.5
				c3,3.2,8.2,8.7,10.9,11.6c0.1,0.1,2.8,2.9,6,6.4c2.5,2.7,5.4,5.7,7.8,8.3c2.4,2.6,4.4,4.6,5.1,5.3c0.4,0.4,0.9,0.9,1.4,1.3
				c0.4,0.3,0.7,0.5,1.1,0.5h0c0.3,0,0.6-0.2,1.1-0.5c1.3-1.1,2.6-2.2,3.9-3.3c3.4-3,14.7-12.9,24-21.1c4.9-4.3,9.2-8.1,11.5-10.1
				c0.6-0.6,1.3-1.1,1.9-1.7v0c1.1-1,2.2-2,3.4-2.9c0.5-0.5,1.1-0.9,1.8-1.2c2.1-1,3.4-0.6,5.4,1.4c2,1.9,28.8,29.6,31.1,32.7
				C537.2,479.5,537.7,480.3,537.3,481.3z"/>
			<g>
				<path class="st12" d="M530.5,513c-6.3-1.6-10,3-11.4,5.1c-0.5-2.3-0.8-4.7-1-7.1c-0.2-4,0.4-7.9,1.7-11.7
					c0.2-0.6,0.5-1.2,0.8-1.7c1.6-2.6,3.7-2.8,5.6-0.4c0.4,0.5,0.7,1.1,1,1.6c1,1.9,1.8,3.9,2.2,6.1
					C530,507.6,530.4,510.3,530.5,513z"/>
				<g>
					<path class="st12" d="M283.4,440.9l-72.6,141c-0.3-0.5-0.3-1.1,0-1.8c0.7-1.6,1.4-3.2,2.1-4.7c1.5-3,2.9-6.1,4.4-9.1l0,0
						c2.2-4.6,4.4-9.2,6.6-13.8c2.6-5.6,5.2-11.1,7.9-16.7c1.3-2.8,2.7-5.7,4-8.6c4-8.4,7.9-16.8,11.9-25.3c1.3-2.7,2.5-5.3,3.8-8
						c2.5-5.3,5.1-10.7,7.5-16.1c1.9-4.2,3.8-8.5,5.7-12.8v0c1.5-3.3,2.9-6.7,4.4-10c2.3-5.2,4.3-10.5,6.2-15.8
						c0.1-0.5,0.3-1,0.6-1.5c0.8-1.6,0.7-2.8,0.1-4l6.9,4.4C283.6,438.6,283.9,439.8,283.4,440.9z"/>
					<path class="st12" d="M369.8,442.5c-0.1,0.6-0.4,3.7-0.9,8.6l-31.1-14.5c-37.8-17.8-39.1-25.3-39.1-25.3
						c1.3,1.3,2.8,2.4,4.4,3.4c5.4,3.1,11,5.7,16.9,7.8c2.1,0.8,18.6,6.3,31.6,10.6h0c7.7,2.6,14.2,4.7,15.5,5.2
						C369.8,439.3,370.1,439.7,369.8,442.5z"/>
					<path class="st12" d="M300.9,374.6L300.9,374.6c-1.7,1.6-3.2,3.3-4.6,5c-2.8,3.6-4.4,7.9-4.5,12.4c-0.1,1.7-0.1,3.5,0,5.2
						c0,0-2.9-10.8,3.1-21.1c0.3-0.5,0.3-1.1,0-1.6l-11.5-19.6c0,0-0.4-1.7-3.9-0.4c-3.5,1.3-6.4,0.8-9.6,10
						c-0.4,1.1-5.3,14.7-7.1,19.5c-0.3,1-1.3,1.5-2.3,1.4l-10.5-1.5c-0.6-0.1-1.2,0.3-1.5,0.9l-2.9,8.6c-0.3,0.8-0.2,1.7,0.2,2.4
						l5.4,10.7c-1.1-1.2-2.2-2.5-3.2-3.7v0c-1.2-1.3-2.3-2.7-3.5-4c-0.5-0.5-0.9-1-1.4-1.5c-1-1-1.9-2.1-2.7-3.2
						c-0.4-0.5-0.6-1-0.8-1.6c-0.1-0.6-0.2-1.2-0.1-1.8c0.2-1.8,0.4-3.5,0.6-5.3c0.3-2.3,0.5-4.7,0.8-7c0.1-0.7,0.2-1.4,0.4-2.1
						c0.1-0.3,0.2-0.5,0.3-0.7c0.2-0.2,0.4-0.4,0.6-0.5c0.2-0.1,0.5-0.2,0.8-0.3c0.3,0,0.5,0,0.8,0.1c0.5,0.1,1.1,0.3,1.6,0.4
						c0.8,0.2,1.5,0.5,2.3,0.7c2.5,0.8,5,1.6,7.5,2.4c0.1,0,0.2,0.1,0.4,0.1c1.9,0.7,2.7,0.9,3.2-2.2c1.5-8.2,3.8-16.2,6.9-23.9
						c0.2-0.5,0.5-1,0.8-1.3c0.4-0.4,0.8-0.7,1.3-0.9c5-2.4,10.1-4.4,15.3-6.2c0.2-0.1,0.5-0.2,0.8-0.3c1.7-0.5,2.1-0.3,2.9,1.1
						c4,7,8.1,13.9,12.1,20.8c0.9,1.7,1.9,3.3,2.7,5C302.6,372.9,302.6,372.9,300.9,374.6z"/>
					<path class="st12" d="M296.8,548c-2.2-1.7-4.3-3.5-6.5-5.2c-0.8-0.7-1.6-1.5-2.3-2.3c-0.2-0.3-0.3-0.6-0.3-0.9
						c0-0.3,0.2-0.6,0.4-0.8c0.4-0.4,0.9-0.7,1.3-0.9c0.5-0.3,0.9-0.5,1.4-0.8c1.4-0.8,2.9-1.6,4.3-2.3c1.8-0.9,3.6-1.9,5.4-2.8
						c4.8-2.5,9.7-5,14.6-7.4c0.6-0.3,1.2-0.6,1.6-1L296.1,544C296.1,544,294.4,546.1,296.8,548z"/>
				</g>
			</g>
			<path class="st12" d="M553.4,574l-19.5-14.5c-2-1.4-6.9-1.9-6.9-1.9c-35.8-5.7-34.6-36.3-34.6-36.3c0.5,2.7,1.3,5.2,2.6,7.6
				c2.2,4.3,5.2,8,9,11c3.9,3.2,8.5,5.4,13.4,6.7c2.5,0.5,4.9,0.8,7.4,0.9c3.1-0.1,6.1-0.6,9-1.5c2.8-0.9,3-0.7,4.4,1.6
				c4.3,7.3,8.7,14.5,13,21.8l0.1,0.2l0.1,0.2l0,0c0.5,0.8,1,1.7,1.4,2.6c0.2,0.3,0.3,0.6,0.4,0.9
				C553.4,573.5,553.4,573.7,553.4,574z"/>
			<path class="st12" d="M617.5,589.2c-0.1,0.6-0.5,1.2-1,1.6c-0.1,0.1-0.2,0.1-0.3,0.2L601,456c-0.5-3.2-4.7-1.8-4.7-1.8
				s-35.7,8.1-40.6,9c-5,0.9-4.8,4.2-4.8,4.2l-0.7,12.9c-0.6,0-1.3-0.1-1.9-0.1c-2.5-0.1-3.2-0.7-3.7-3.1c-0.9-3.8-1.4-7.6-1.9-11.4
				c-0.3-2.3-0.5-4.6-0.7-6.9c0-0.5-0.1-0.9-0.1-1.4c-0.1-0.5-0.1-0.9-0.1-1.4c0-0.5,0.1-1.1,0.5-1.5c0.3-0.4,0.8-0.8,1.3-0.9
				c0.7-0.2,1.4-0.4,2.1-0.5l4.1-0.6h0c11.3-1.8,22.7-3.5,34-5.2c5.7-0.8,11.4-1.6,17.2-2.3h0c1.6-0.2,3.1-0.4,4.7-0.6
				c2.8-0.3,3.3,0,3.8,2.9c0.4,3.1,1.9,23.6,1.9,23.9c0.1,3.1,0.7,13.7,1.1,20.9l0,0c0.1,2.4,0.3,4.5,0.3,5.7l0.2,3.2l0,0.5
				c0.4,8.6,1.4,28.4,1.6,32c0,0.9,0.2,3.2,0.4,6.3C615.7,554.7,617.6,588.6,617.5,589.2z"/>
			<path class="st12" d="M729.7,442.5c-0.5,0.3-1.3,0.7-1.9,1v0c-0.6,0.3-1.1,0.6-1.3,0.7c-4.3,2.5-8.4,5.3-12.2,8.4
				c-2.6,2.4-4.9,5-6.8,7.9c2.6-8.2,13.6-16.9,15.5-18c2.2-1.2,1.3-2.5,1.3-2.5l-7.1-28.1c-1.3-3.9-4.6-2.2-4.6-2.2
				s-82.7,29.7-86.8,31.8c-1.6,0.8-2.5,2-2.9,3c0-0.1,0-0.1,0-0.2c-0.2-0.8-0.4-1.6-0.7-2.5c-0.2-0.8-0.5-1.5-0.7-2.3
				c-0.2-0.7-0.4-1.3-0.6-2.1c-0.5-1.6-0.3-1.9,1.2-2.5c1.5-0.6,3-1.2,4.5-1.8h0c2-0.8,4-1.6,6-2.4c13.6-5.6,27.2-11.3,40.8-16.9
				l29.4-12.2l15.9-6.7c0.2-0.1,0.4-0.2,0.6-0.2c0.8-0.3,1.6-0.7,2.4-0.9c1.2-0.4,1.8,0,2.1,1.3c0,0,0.6,4.4,1.4,11.5l0,0.1
				C726.3,415.6,727.9,428.6,729.7,442.5z"/>
			<path class="st12" d="M736.7,497.8c-12.1,1-23.5-5.2-26.6-7.1c-3.3-2-4.8,0-4.8,0s-5,4.6-9.1,7.5c-4.2,2.9-7.7,1.4-7.7,1.4
				c0.2,0,0.5,0,0.7,0c0.2-0.1,0.4-0.1,0.6-0.3c0.5-0.3,0.9-0.6,1.3-0.9c2.4-1.9,4.5-4.2,6.1-6.9c1.2-1.9,2.3-3.8,3.3-5.8
				c0.4-0.8,0.8-1.5,1.4-2.2c0.4-0.5,0.9-0.9,1.5-1c0.6-0.2,1.2-0.2,1.8,0.1c0.4,0.1,0.7,0.3,1.1,0.4c0.2,0.1,0.4,0.2,0.7,0.3
				c0.2,0.1,0.2,0.1,0.2,0.1s0,0,0,0c2.7,1.3,5.5,2.5,8.3,3.5c3.7,1.4,7.5,2.2,11.5,2.5c3,0.2,5.9,0.1,8.9-0.1
				C736,492.3,736.4,495.1,736.7,497.8C736.7,497.7,736.7,497.7,736.7,497.8z"/>
			<path class="st12" d="M781.8,549.7c-0.1,0.5-0.3,1-0.4,1.6c-0.8,2.6-1.6,5.2-2.5,7.8c-0.7-2.9-4.4-3.1-4.4-3.1L715,550
				c-8.9-0.5-11.1-2.7-11.2-2.8c0.4,0.3,0.9,0.5,1.5,0.6c0.1,0,0.1,0,0.2,0l0.5,0c1.8,0.1,3.6,0.3,5.5,0.3h66.4c1,0,1.9,0,2.9,0.1
				c0.2,0,0.4,0,0.5,0.1c0.2,0.1,0.3,0.2,0.4,0.3c0.1,0.1,0.2,0.3,0.2,0.5S781.9,549.5,781.8,549.7z"/>
			<path class="st12" d="M786.3,605.8c0,0.2,0,0.4-0.1,0.5c-0.1,0.2-0.2,0.3-0.3,0.4c-0.4,0.5-0.9,0.9-1.5,1.1
				c-0.8,0.3-1.7,0.6-2.6,0.8c-0.4,0.1-0.7,0.2-1.1,0.3c0,0,0,0,0,0l-12.7-13c0.2,0.1,0.4,0.2,0.6,0.3h0c0.9,0.5,1.8,1,2.7,1.4
				c2,0.9,4,1.7,6,2.5h0c0.8,0.4,1.6,0.7,2.5,1c1.8,0.7,3.4,1.6,5,2.6c0.4,0.3,0.9,0.6,1.3,1c0.1,0.1,0.2,0.3,0.3,0.4
				C786.3,605.4,786.3,605.6,786.3,605.8z"/>
		</g>
	</g>
</g>
</svg>
