<svg width="427" height="233" viewBox="0 0 427 233" fill="none" xmlns="http://www.w3.org/2000/svg">
<path fill-rule="evenodd" clip-rule="evenodd" d="M104.393 66.4207L104.39 66.42C94.8132 63.2208 82.5738 59.1323 81.015 58.552C76.6757 57.0089 72.4875 55.0701 68.5033 52.76C65.2445 50.8244 62.6927 47.8945 61.2228 44.4009C60.5764 42.9815 60.2101 41.4506 60.1442 39.8924C60.0795 38.6061 60.0795 37.3173 60.1442 36.031C60.2802 32.6937 61.4527 29.4816 63.4987 26.8414C64.5579 25.5361 65.6961 24.297 66.907 23.131L66.9233 23.1146C68.1691 21.8582 68.1869 21.8403 67.3385 20.1757C66.6913 18.9138 66.0118 17.6734 65.3107 16.4438C62.341 11.3384 59.3605 6.19716 56.3692 1.01992C55.7436 -0.0586741 55.4416 -0.166534 54.212 0.167829C54.0183 0.222836 53.8275 0.287635 53.6403 0.361976C49.8113 1.74257 46.0255 3.20946 42.3367 4.96756C41.9743 5.12359 41.6471 5.35111 41.3747 5.63651C41.1022 5.92191 40.8902 6.25934 40.7511 6.62859C38.4737 12.3587 36.7615 18.2976 35.6386 24.3606C35.2623 26.649 34.7422 26.4727 33.3004 25.9839C33.2132 25.9543 33.1226 25.9236 33.0285 25.8922C31.1802 25.2789 29.3255 24.6847 27.4693 24.09L27.4692 24.0899C26.9099 23.9107 26.3505 23.7315 25.7911 23.5517C25.4147 23.4162 25.029 23.308 24.637 23.2281C24.4457 23.1699 24.2444 23.1521 24.0459 23.1756C23.8473 23.1992 23.6559 23.2637 23.4835 23.3651C23.3112 23.4665 23.1618 23.6025 23.0447 23.7646C22.9276 23.9266 22.8454 24.1113 22.8034 24.3067C22.6461 24.8239 22.5378 25.3548 22.4798 25.8922C22.265 27.611 22.0641 29.3332 21.8633 31.055C21.7112 32.3586 21.5592 33.6619 21.4012 34.9632C21.3305 35.3941 21.3496 35.8349 21.4573 36.2581C21.5649 36.6813 21.7588 37.0776 22.0268 37.4224C22.643 38.2705 23.3517 39.0309 24.058 39.7888L24.058 39.7888L24.0581 39.7888L24.0581 39.7889L24.0581 39.7889L24.0581 39.7889C24.4027 40.1587 24.7468 40.5278 25.0792 40.9062C25.9531 41.9018 26.8233 42.8991 27.693 43.8959L27.6935 43.8965L27.6936 43.8966L27.6937 43.8968L27.6939 43.8969L27.694 43.897L27.6941 43.8972C29.8299 46.345 31.9629 48.7896 34.1394 51.196C38.4538 55.985 42.8221 60.7344 47.2443 65.4442C48.4847 66.7601 49.1318 68.0328 48.1935 69.7586C48.0227 70.1277 47.882 70.5101 47.7728 70.9019C46.3814 74.8495 44.9145 78.7756 43.1996 82.6046C42.0999 85.0588 41.023 87.5254 39.9461 89.9917L39.9459 89.9923L39.9456 89.9929L39.9454 89.9934L39.9451 89.994L39.9449 89.9946L39.9448 89.9947L39.9448 89.9949L39.9447 89.995L39.9446 89.9951L39.9446 89.9953C38.561 93.1641 37.1776 96.3326 35.7465 99.4738C33.9323 103.462 32.0652 107.412 30.1966 111.365C29.2657 113.335 28.3343 115.305 27.409 117.281C24.4824 123.523 21.5558 129.761 18.6292 135.995C17.6372 138.107 16.6476 140.217 15.6584 142.327C13.7222 146.456 11.7876 150.582 9.83873 154.708C8.22182 158.131 6.59709 161.545 4.9716 164.961L4.96711 164.97C3.89415 167.225 2.82087 169.481 1.74929 171.739C1.19921 172.894 0.67069 174.069 0.185323 175.256C-0.14904 176.065 -0.0519746 176.615 0.64911 177.003C1.42196 177.441 22.677 187.75 29.0151 190.824L29.145 190.887L29.2055 190.916L29.2748 190.95L29.3014 190.962C30.1381 191.368 30.6597 191.621 30.7634 191.672C30.9467 191.801 31.1544 191.89 31.3737 191.936C31.593 191.981 31.8194 191.981 32.0387 191.936C32.258 191.89 32.4657 191.8 32.6489 191.671C32.8321 191.542 32.987 191.377 33.1039 191.186C33.2896 190.905 33.4588 190.613 33.6109 190.313C34.1265 189.227 41.9442 172.661 49.6098 156.416L49.6183 156.398L49.6716 156.285L49.6928 156.24C57.2302 140.268 64.5945 124.662 64.6959 124.454C67.1982 119.212 69.7149 113.974 72.246 108.739C72.4475 108.311 72.6707 107.893 72.9148 107.488C73.0155 107.273 73.1842 107.097 73.3948 106.988C73.6054 106.879 73.8461 106.842 74.0797 106.884C75.32 107.143 76.5496 107.412 77.7792 107.714C78.0412 107.777 78.2806 107.911 78.471 108.101C78.6615 108.291 78.7953 108.531 78.8578 108.793C79.0716 109.646 79.1732 110.523 79.1598 111.403C79.1598 113.916 79.4942 129.426 79.6128 130.904C79.7423 132.608 78.9657 133.449 77.5311 134.14C73.9215 135.929 70.3346 137.775 66.7499 139.62L66.7487 139.621C65.4065 140.312 64.0647 141.002 62.7221 141.69C61.6499 142.242 60.5899 142.825 59.533 143.406C59.1864 143.597 58.8402 143.787 58.494 143.976C58.142 144.17 57.8097 144.398 57.5017 144.656C57.3154 144.81 57.1973 145.031 57.173 145.271C57.1488 145.511 57.2204 145.752 57.3722 145.939C57.884 146.561 58.4508 147.135 59.0656 147.654C62.1936 150.189 65.3215 152.702 68.4818 155.205C72.1202 158.081 75.7658 160.925 79.4187 163.736C79.8627 164.041 80.2288 164.445 80.4874 164.918C80.746 165.39 80.8897 165.916 80.9071 166.454C80.9892 167.863 81.0886 169.269 81.188 170.676L81.188 170.677L81.1881 170.677C81.3367 172.781 81.4853 174.885 81.5758 176.992C81.6238 178.116 81.7328 179.228 81.8419 180.34C81.9044 180.977 81.967 181.615 82.0181 182.256C82.0936 183.129 82.4819 183.442 83.3447 183.399L83.4111 183.396C84.9521 183.319 104.919 182.32 105.057 182.32C106.135 182.213 106.33 182.029 106.599 181.048C106.729 180.591 106.827 180.126 106.89 179.656C107.066 178.26 109.25 157.037 111.629 133.913L111.629 133.91C114.507 105.937 117.672 75.1835 117.914 73.3826C118.129 71.3441 117.924 71.0313 115.864 70.2655C114.899 69.9304 110.123 68.3348 104.393 66.4207ZM326.551 201.104H326.551H326.55H326.55H326.549H326.549H326.549H326.548H326.548H326.547H326.547H326.546H326.546C325.21 201.127 323.873 201.151 322.544 201.088C321.949 201.024 321.351 201.168 320.851 201.497C320.351 201.825 319.981 202.318 319.804 202.889C319.298 204.064 318.747 205.205 318.192 206.357C317.967 206.824 317.742 207.292 317.518 207.764C316.59 209.695 316.299 209.727 315.016 208.099C314.633 207.617 314.249 207.137 313.865 206.656L313.862 206.653C312.793 205.317 311.724 203.98 310.701 202.609C310.385 202.104 309.939 201.694 309.409 201.423C308.879 201.151 308.286 201.028 307.692 201.066C305.916 201.11 304.141 201.095 302.368 201.081H302.368H302.368H302.367H302.367H302.367H302.366H302.366H302.366H302.365H302.365H302.364C301.479 201.074 300.594 201.066 299.71 201.066C299.687 201.066 299.663 201.066 299.638 201.066C299.604 201.065 299.568 201.065 299.531 201.064C298.954 201.052 297.977 201.032 298.189 201.767C300.475 205.079 302.974 208.26 305.47 211.437L305.47 211.438C307.331 213.807 309.191 216.175 310.96 218.593C311.909 219.609 311.364 220.64 310.837 221.638L310.837 221.638L310.836 221.639C310.775 221.754 310.715 221.869 310.657 221.983L310.626 222.045L306.861 229.595C306.804 229.744 306.707 229.927 306.603 230.127C306.199 230.896 305.674 231.895 306.797 231.99H311.985H316.774C317.303 232.032 317.83 231.894 318.271 231.598C318.711 231.302 319.039 230.866 319.2 230.361C321.162 226.198 323.123 222.046 325.085 217.894C327.438 212.913 329.791 207.932 332.144 202.932C332.163 202.889 332.186 202.842 332.209 202.793L332.211 202.789L332.213 202.785C332.458 202.27 332.836 201.474 332.111 201.239C330.273 201.038 328.412 201.071 326.551 201.104ZM132.054 201.228C134.51 201.045 136.976 201.045 139.432 201.228C140.338 201.325 140.338 202.479 140.294 203.267C140.27 207.247 140.382 211.223 140.493 215.199C140.632 220.124 140.77 225.049 140.65 229.983C140.629 231.806 140.348 232.043 138.547 232.043H133.154C132.732 232.066 132.311 231.979 131.933 231.79C131.555 231.601 131.232 231.316 130.997 230.965C129.903 229.458 128.842 227.925 127.781 226.394L127.78 226.393C126.071 223.924 124.363 221.457 122.519 219.1C121.966 218.726 121.957 219.641 121.951 220.224C121.95 220.38 121.948 220.512 121.937 220.589V229.369C121.915 231.979 121.84 232.065 119.24 232.065C117.829 232.053 116.659 232.072 115.688 232.087C113.195 232.126 112.028 232.144 111.523 231.575C111.08 231.075 111.147 230.121 111.275 228.328C111.356 227.186 111.462 225.704 111.474 223.781C111.563 221.088 111.54 218.39 111.518 215.695C111.479 211.181 111.441 206.674 111.928 202.21C111.992 201.207 112.985 201.131 113.783 201.131H119.176C120.705 201.028 121.402 202.217 122.092 203.395C122.341 203.82 122.589 204.243 122.875 204.604C125.147 208.199 127.427 211.795 129.713 215.39C129.786 215.478 129.874 215.615 129.971 215.765L129.972 215.766L129.972 215.767C130.209 216.133 130.495 216.576 130.717 216.576C130.824 216.523 130.997 216.436 130.997 216.35C131.105 215.757 131.105 215.164 131.105 214.57V203.784C131.129 203.593 131.132 203.367 131.135 203.13C131.146 202.309 131.159 201.354 132.054 201.228ZM228.023 201.105C229.359 201.092 230.699 201.08 232.029 201.207C232.97 201.314 232.984 202.313 232.995 203.078L232.997 203.182C232.998 203.222 232.998 203.261 232.999 203.299C233.039 206.197 233.092 209.095 233.144 211.993L233.144 211.998V211.998V211.999V211.999V211.999V211.999V212V212V212V212.001V212.001V212.001V212.001C233.25 217.806 233.355 223.612 233.355 229.423C233.353 229.53 233.353 229.646 233.353 229.765C233.353 230.723 233.353 231.962 232.126 231.914H225.341C225.007 231.895 224.683 231.792 224.398 231.614C224.114 231.437 223.878 231.192 223.713 230.9C221.027 227.136 218.32 223.318 215.634 219.521C215.612 219.493 215.59 219.463 215.568 219.433C215.4 219.209 215.206 218.949 214.911 218.949C214.854 218.974 214.804 219.011 214.763 219.058C214.722 219.104 214.691 219.159 214.674 219.219C214.539 221.719 214.549 224.233 214.56 226.739V226.739V226.741V226.743V226.744V226.746C214.563 227.427 214.566 228.107 214.566 228.786C214.566 231.968 214.566 231.968 211.331 231.968C210.665 231.968 210 231.975 209.335 231.982C208.005 231.997 206.675 232.011 205.344 231.968C204.277 231.882 203.964 231.612 203.91 230.469C204.266 221.776 204.266 213.061 204.266 204.346V204.345C204.281 204.13 204.282 203.889 204.282 203.638V203.638C204.285 202.497 204.287 201.163 205.711 201.163C206.687 201.098 207.669 201.115 208.651 201.133H208.651C209.6 201.151 210.549 201.168 211.492 201.109C212.088 201.056 212.685 201.187 213.204 201.484C213.723 201.781 214.138 202.23 214.394 202.771C214.901 203.584 215.408 204.398 215.915 205.212L215.915 205.213C218.359 209.14 220.804 213.07 223.368 216.911L223.777 216.771V203.633C223.788 201.271 223.928 201.109 226.247 201.109C226.838 201.116 227.43 201.111 228.023 201.105ZM266.058 201.077H290.995C293.433 201.088 293.724 201.304 293.713 203.633C293.71 204.337 293.717 205.042 293.723 205.747L293.723 205.753V205.754V205.754V205.754V205.755V205.755V205.756V205.756V205.756V205.757V205.757C293.739 207.381 293.754 209.005 293.649 210.612C293.571 212.021 292.351 212.013 291.231 212.006C290.945 212.005 290.665 212.003 290.413 212.025L290.352 212.028C288.786 212.113 287.211 212.199 285.646 212.327C284.459 212.424 284.125 212.715 284.125 213.977C284.006 216.825 283.887 219.683 283.823 222.541C283.735 224.841 283.777 226.59 283.809 227.919V227.919V227.92V227.92V227.921V227.921C283.859 229.967 283.884 231.014 283.373 231.537C282.837 232.086 281.71 232.057 279.402 232C278.144 231.969 276.536 231.928 274.482 231.968C273.641 231.99 272.508 231.849 272.562 230.771C272.519 227.799 272.715 224.832 272.912 221.865C273.106 218.932 273.301 215.999 273.263 213.06C273.191 211.868 271.938 212.007 270.963 212.115C270.774 212.136 270.595 212.156 270.437 212.165C268.984 212.332 267.519 212.375 266.058 212.294C264.926 212.251 264.548 211.96 264.548 210.882C264.505 208.084 264.505 205.291 264.548 202.501C264.57 201.433 264.98 201.077 266.058 201.077ZM171.304 201.131H161.92H152.936C152.769 201.14 152.584 201.14 152.393 201.139C151.48 201.135 150.407 201.131 150.336 202.21C150.198 206.507 150.204 210.813 150.211 215.117V215.117V215.117V215.117V215.118V215.118V215.118V215.118V215.118V215.119C150.215 217.868 150.219 220.616 150.185 223.361C150.185 224.361 150.119 225.359 150.053 226.357L150.053 226.358C149.957 227.813 149.861 229.269 149.969 230.728C149.969 231.58 150.379 231.806 151.264 231.946C152.098 231.946 152.936 231.96 153.775 231.974H153.776C155.93 232.008 158.092 232.043 160.227 231.849C160.906 231.698 160.928 230.922 160.874 230.361C160.704 228.357 160.717 226.353 160.73 224.348C160.735 223.559 160.74 222.77 160.734 221.98C160.734 220.125 160.949 219.942 162.805 219.92C163.321 219.92 163.782 219.926 164.194 219.932C165.827 219.954 166.692 219.966 167.131 219.539C167.625 219.06 167.581 218.027 167.487 215.832C167.48 215.659 167.472 215.48 167.464 215.293C167.464 214.311 167.087 213.988 166.116 213.934C165.145 213.88 163.851 213.869 162.718 213.869C160.637 213.869 160.13 213.686 160.443 211.043C160.537 209.899 161.75 209.932 162.695 209.958C162.828 209.961 162.956 209.965 163.074 209.965C164.202 209.943 165.334 209.948 166.466 209.952H166.467H166.467H166.467H166.467H166.467H166.468H166.468H166.468H166.468C168.13 209.959 169.794 209.966 171.455 209.889C173.116 209.717 173.407 209.425 173.44 207.732C173.461 206.602 173.454 205.616 173.447 204.634V204.632V204.629V204.627C173.445 204.415 173.444 204.203 173.442 203.99C173.441 203.713 173.44 203.433 173.44 203.148C173.386 201.368 173.159 201.142 171.304 201.131ZM244.594 201.153H252.975C254.194 201.174 254.485 201.509 254.582 202.749V215.919H254.517C254.455 217.73 254.49 219.556 254.526 221.387V221.388V221.388V221.388V221.389V221.389V221.389V221.39V221.39C254.588 224.607 254.65 227.837 254.183 231.019C254.064 231.795 253.299 231.968 252.63 231.968H244.648C242.924 232.078 242.933 230.884 242.943 229.606C242.943 229.509 242.944 229.412 242.944 229.315C242.944 221.793 242.966 214.275 243.009 206.761C243.018 205.557 243.13 204.345 243.242 203.139C243.265 202.886 243.288 202.634 243.311 202.382C243.397 201.519 243.699 201.26 244.594 201.153ZM192.186 201.131H184.635C182.696 200.995 182.692 202.098 182.687 203.49V203.492C182.687 203.562 182.687 203.634 182.687 203.705L182.686 203.766L182.685 203.857C182.685 203.894 182.684 203.931 182.683 203.968V216.35C182.717 218.251 182.7 220.158 182.683 222.065V222.065V222.065V222.066V222.066V222.066V222.067V222.067C182.657 225.082 182.63 228.1 182.802 231.105C182.909 231.939 183.863 231.968 184.573 231.989L184.592 231.99H191.981C193.512 232.043 194.03 231.569 193.976 230.016C194.003 228.946 194.032 227.876 194.06 226.806C194.279 218.572 194.498 210.319 194.203 202.091C194.011 201.157 192.974 201.142 192.221 201.132L192.186 201.131ZM92.6747 201.142H99.8581C101.239 201.228 101.498 201.465 101.519 202.792V216.566C101.466 218.559 101.489 220.558 101.513 222.558V222.558V222.558V222.558V222.559V222.559V222.559V222.559C101.546 225.416 101.58 228.274 101.39 231.116C101.249 232 100.117 232 99.3943 232H92.0059C91.0999 232.011 90.0753 231.946 90.0213 230.868C89.8919 227.362 89.8488 223.814 90.0213 220.308C90.2584 216.697 90.2566 213.086 90.2548 209.478C90.2538 207.503 90.2528 205.53 90.291 203.558C90.3341 201.314 90.5175 201.142 92.6747 201.142ZM253.614 171.569C253.468 171.756 253.283 171.91 253.072 172.02C252.08 172.796 251.023 173.498 249.923 174.134C248.718 175.01 247.514 175.89 246.31 176.769L246.3 176.776L246.291 176.783L246.288 176.784L246.286 176.786L246.284 176.788L246.282 176.789C243.302 178.965 240.321 181.142 237.325 183.28C234.703 185.148 232.058 186.981 229.415 188.814L229.413 188.815C228.393 189.522 227.373 190.23 226.355 190.938C226.075 191.133 225.794 191.305 225.514 191.478C225.03 191.803 224.454 191.964 223.871 191.937C223.288 191.91 222.73 191.696 222.278 191.327C221.962 191.116 204.399 175.711 196.526 168.806C194.747 167.245 193.463 166.119 192.984 165.699L192.058 164.889L192.056 164.887L192.055 164.887L192.055 164.887C189.763 162.881 187.469 160.873 185.207 158.839L185.092 158.739C183.768 157.583 183.477 157.329 181.788 158.839C177.711 162.453 173.742 166.206 169.826 170.003C168.071 171.702 160.21 178.848 155.308 183.304C153.521 184.928 152.128 186.195 151.566 186.71C151.147 187.093 150.728 187.476 150.31 187.859L150.309 187.86C149.253 188.828 148.199 189.794 147.133 190.744C146 191.737 145.364 191.726 144.134 190.798C144.027 190.719 143.928 190.631 143.83 190.542L143.83 190.542C143.781 190.497 143.732 190.453 143.681 190.41C142.54 189.359 134.824 182.142 128.096 175.849L128.062 175.817L128.055 175.811L127.912 175.677L127.815 175.586C123.403 171.46 119.466 167.777 118.162 166.562C117.614 166.071 117.102 165.542 116.63 164.977C116.141 164.423 115.847 163.724 115.795 162.987C115.742 162.251 115.933 161.517 116.339 160.9C116.8 160.167 117.335 159.484 117.935 158.861C118.982 157.739 143.164 136.286 146.216 133.611C146.481 133.378 146.747 133.145 147.013 132.912L147.026 132.9L147.026 132.9C148.106 131.953 149.186 131.005 150.239 130.03C150.897 129.405 150.789 128.898 150.239 128.326C149.689 127.754 149.107 127.194 148.513 126.676L146.944 125.325L146.944 125.325L146.937 125.319C142.886 121.832 138.822 118.334 134.783 114.811C132.696 113.001 130.627 111.145 128.558 109.289L128.551 109.283L128.535 109.268L128.514 109.25C127.775 108.586 127.035 107.923 126.294 107.261C124.899 106.024 123.512 104.78 122.131 103.529C121.78 103.227 121.452 102.899 121.149 102.548C120.179 101.361 120.179 100.833 121.149 99.5924C121.266 99.4305 121.392 99.2757 121.527 99.1286C122.337 98.2632 123.138 97.3888 123.94 96.5143C125.926 94.3478 127.913 92.1802 130.026 90.144C132.818 87.4867 135.676 84.8997 138.535 82.312C140.016 80.9713 141.497 79.6304 142.969 78.2794C143.66 77.646 144.327 76.9981 144.996 76.3486L144.997 76.3483L144.999 76.3459C145.331 76.0232 145.664 75.7 146 75.378C146.101 75.2809 146.2 75.1819 146.299 75.0827L146.3 75.0823L146.3 75.0821C146.532 74.8509 146.765 74.6185 147.014 74.4073C147.188 74.2008 147.405 74.0347 147.65 73.9208C147.895 73.807 148.162 73.7479 148.432 73.7479C148.703 73.7479 148.97 73.807 149.215 73.9208C149.46 74.0347 149.677 74.2008 149.851 74.4073C150.766 75.2572 151.619 76.174 152.472 77.0892L152.472 77.0893L152.472 77.0894L152.472 77.0896L152.472 77.0897L152.475 77.092L152.475 77.0929C152.758 77.396 153.04 77.6988 153.324 77.999C153.447 78.1283 154.119 78.8471 155.079 79.8723C157.322 82.2694 161.133 86.3417 163.15 88.4721C163.239 88.5488 165.194 90.6217 167.625 93.2007L167.626 93.2018C171.353 97.1538 176.199 102.294 177.172 103.26C177.495 103.583 177.829 103.918 178.175 104.22C178.811 104.716 179.145 104.737 179.76 104.22C180.731 103.411 181.691 102.58 182.629 101.75C185.144 99.5241 193.519 92.1753 200.376 86.1575C203.988 82.9884 207.178 80.1884 208.871 78.7001C209.342 78.2876 209.81 77.8667 210.278 77.4464L210.279 77.4455C211.106 76.7013 211.931 75.9593 212.765 75.2702C213.163 74.9177 213.601 74.6136 214.07 74.3642C215.634 73.5984 216.573 73.9327 218.039 75.3673C219.506 76.8018 239.331 97.295 241.078 99.5601C242.599 101.545 242.545 102.019 240.657 103.702C239.665 104.586 210.532 128.66 209.594 129.394C209.24 129.647 208.975 130.006 208.838 130.418C208.7 130.831 208.697 131.277 208.828 131.691C209.191 133.659 209.83 135.565 210.727 137.354C212.332 140.507 214.594 143.28 217.36 145.487C220.277 147.829 223.666 149.514 227.294 150.426C229.109 150.81 230.952 151.044 232.805 151.128C235.072 151.023 237.319 150.662 239.503 150.049C241.542 149.391 241.725 149.499 242.739 151.214C245.953 156.578 249.164 161.946 252.371 167.317L252.47 167.484L252.575 167.659L252.579 167.666C252.956 168.295 253.334 168.927 253.644 169.582C253.784 169.774 253.881 169.994 253.928 170.227C253.976 170.46 253.972 170.701 253.918 170.932C253.863 171.164 253.76 171.381 253.614 171.569ZM301.857 182.018C301.964 181.538 300.534 156.439 299.911 145.494C299.779 143.18 299.683 141.499 299.646 140.816C299.495 138.091 298.757 123.439 298.437 117.09L298.416 116.684L298.297 114.326C298.248 113.434 298.161 111.921 298.056 110.112L298.055 110.09C297.747 104.769 297.291 96.8947 297.219 94.6201C297.219 94.4152 296.14 79.2286 295.817 76.9312C295.504 74.774 295.094 74.5691 293.034 74.774C291.885 74.9234 290.735 75.0714 289.586 75.2193L289.577 75.2205L289.568 75.2217L289.566 75.2218C285.329 75.7672 281.092 76.3126 276.855 76.9312C268.466 78.1722 260.077 79.4733 251.696 80.7733L251.691 80.774L251.686 80.7748L248.65 81.2456C248.122 81.3231 247.603 81.4458 247.097 81.6123C246.713 81.7356 246.38 81.9799 246.146 82.3084C245.913 82.637 245.792 83.0323 245.802 83.4351C245.793 83.7704 245.811 84.1058 245.856 84.4382C245.89 84.7798 245.924 85.1215 245.958 85.4631C246.127 87.1708 246.297 88.8785 246.503 90.5862C246.859 93.4229 247.248 96.2596 247.884 99.0423C248.283 100.811 248.822 101.2 250.645 101.307C251.629 101.344 252.612 101.423 253.594 101.502C255.197 101.631 256.8 101.76 258.411 101.706C258.677 101.69 258.943 101.69 259.209 101.706C259.579 101.709 259.939 101.829 260.236 102.05C260.533 102.272 260.751 102.582 260.859 102.936C261.172 103.815 261.431 104.712 261.636 105.622C262.301 109.829 262.384 114.108 261.884 118.338C261.773 120.065 261.495 121.778 261.054 123.451C260.093 127.055 258.789 130.558 257.16 133.913C256.47 135.283 255.779 136.642 255.078 138.001C254.327 139.349 254.082 140.921 254.388 142.434C254.797 144.433 255.159 146.44 255.521 148.447C255.761 149.776 256 151.105 256.254 152.433C257.455 158.638 258.663 164.84 259.878 171.038C259.973 171.514 260.058 172.005 260.143 172.499L260.143 172.5C260.251 173.125 260.36 173.757 260.493 174.371C260.614 175.032 260.924 175.643 261.385 176.132C261.846 176.62 262.439 176.964 263.092 177.122C263.664 177.294 264.246 177.434 264.839 177.564C275.722 179.807 286.67 181.662 297.639 183.464C298.35 183.601 299.073 183.67 299.797 183.669C300.279 183.68 300.751 183.521 301.128 183.219C301.505 182.917 301.763 182.492 301.857 182.018ZM234.93 115.135C235.687 116.544 236.235 118.055 236.559 119.622C237.192 122.226 237.475 124.903 237.4 127.582C237.473 129.5 237.339 131.42 237.001 133.309C236.796 134.489 236.463 135.642 236.009 136.75C235.754 137.444 235.304 138.051 234.714 138.497C234.5 138.66 234.239 138.748 233.97 138.748C233.701 138.748 233.44 138.66 233.226 138.497C232.577 138.027 232.048 137.41 231.684 136.696C230.697 134.959 229.936 133.103 229.419 131.174C228.805 128.86 228.405 126.495 228.221 124.109C228.059 121.176 228.492 118.241 229.494 115.48C229.651 115.04 229.854 114.617 230.098 114.218C231.252 112.277 232.859 112.169 234.207 113.938C234.479 114.318 234.721 114.718 234.93 115.135ZM426.499 193.559C426.212 193.288 425.901 193.043 425.571 192.826C424.395 192.066 423.149 191.42 421.85 190.895C421.24 190.636 420.629 190.379 420.019 190.122L420.017 190.121C418.543 189.5 417.069 188.879 415.605 188.231C414.935 187.931 414.286 187.562 413.641 187.195L413.634 187.191C413.471 187.099 413.308 187.006 413.146 186.915C412.797 186.713 412.514 186.413 412.332 186.053C412.15 185.693 412.077 185.288 412.121 184.887C412.19 184.092 412.386 183.312 412.704 182.579C413.339 180.906 413.97 179.232 414.602 177.558L414.603 177.553C415.92 174.06 417.237 170.568 418.593 167.091C420.286 162.776 421.828 158.343 423.177 153.889C423.302 153.51 423.407 153.125 423.489 152.735C423.533 152.606 423.543 152.469 423.521 152.335C423.498 152.202 423.442 152.076 423.359 151.969C423.276 151.862 423.167 151.778 423.043 151.723C422.919 151.668 422.783 151.645 422.648 151.656C421.925 151.591 421.192 151.591 420.491 151.591H371.361C370.006 151.591 368.661 151.481 367.316 151.371L366.982 151.343C366.515 151.353 366.06 151.198 365.695 150.906C365.331 150.615 365.08 150.204 364.987 149.747C364.332 147.549 363.655 145.355 362.979 143.163C362.597 141.924 362.215 140.685 361.837 139.446C361.791 139.32 361.755 139.19 361.729 139.058C361.677 138.934 361.65 138.8 361.649 138.665C361.649 138.53 361.676 138.396 361.728 138.271C361.78 138.147 361.857 138.034 361.954 137.939C362.05 137.845 362.165 137.77 362.29 137.721C363.11 137.289 363.962 136.89 364.814 136.534C370.207 134.312 375.6 132.285 380.993 130.3C383.937 129.221 386.861 128.143 389.783 126.999C391.326 126.406 391.466 126.115 391.326 124.443C391.326 124.389 390.485 117.68 389.266 108.027C387.086 108.243 384.893 108.279 382.708 108.135C379.809 107.895 376.957 107.26 374.23 106.247C372.138 105.486 370.089 104.611 368.093 103.626C368.114 103.626 368.128 103.626 368.128 103.624C368.129 103.618 368.079 103.601 367.942 103.551C367.77 103.484 367.605 103.409 367.44 103.333C367.18 103.215 366.92 103.097 366.637 103.012C366.212 102.856 365.749 102.843 365.316 102.975C364.884 103.108 364.507 103.378 364.242 103.745C363.845 104.26 363.505 104.817 363.229 105.406C362.514 106.891 361.711 108.332 360.823 109.72C359.627 111.676 358.085 113.398 356.272 114.801C355.972 115.051 355.651 115.275 355.312 115.469C355.177 115.57 355.023 115.643 354.86 115.683C354.696 115.723 354.526 115.73 354.36 115.702C354.194 115.675 354.035 115.615 353.892 115.525C353.75 115.435 353.628 115.317 353.532 115.178C353.286 114.713 350.727 107.25 349.935 104.939L349.934 104.935L349.928 104.918C349.788 104.508 349.705 104.266 349.703 104.263C348.549 101.221 346.133 93.6602 346.025 93.0562C345.917 92.4522 346.456 91.8697 347.265 91.7403C347.653 91.708 348.043 91.708 348.43 91.7403C350.721 91.7551 352.99 92.1825 355.128 93.0023C356.673 93.5534 358.182 94.1982 359.648 94.9329C360.225 95.2338 360.832 95.4724 361.46 95.6448C361.894 95.7773 362.36 95.7624 362.786 95.6024C363.211 95.4425 363.571 95.1464 363.811 94.7604C363.987 94.5167 364.125 94.2561 364.262 93.9972L364.262 93.9967C364.343 93.8431 364.424 93.6901 364.512 93.5415C364.579 93.4373 364.609 93.3854 364.615 93.3699C364.62 93.358 364.612 93.3673 364.598 93.3905C365.571 91.3953 366.651 89.4546 367.834 87.5769C369.382 85.1154 371.258 82.8764 373.41 80.922C376.236 78.5861 379.256 76.4968 382.438 74.677C382.589 74.5836 382.976 74.3806 383.424 74.1458L383.425 74.1452C383.908 73.8917 384.462 73.6013 384.865 73.3719C383.568 63.1077 382.354 53.473 381.527 46.9139L381.513 46.8085C380.856 41.5947 380.448 38.3523 380.443 38.3284C380.249 37.3469 379.817 37.0557 378.9 37.3793C378.293 37.5877 377.699 37.8311 377.102 38.0757C376.957 38.1348 376.813 38.1941 376.668 38.2529L364.879 43.1929L343.124 52.2315C333.057 56.4164 322.99 60.5942 312.923 64.7647C311.438 65.3834 309.946 65.9772 308.456 66.5705L308.455 66.5708C307.347 67.0119 306.239 67.4528 305.136 67.9034C304.057 68.3564 303.949 68.6045 304.284 69.7586C304.437 70.289 304.602 70.7874 304.764 71.276L304.764 71.2771L304.764 71.2774C304.955 71.8515 305.14 72.4119 305.297 72.9944C305.719 74.5646 306.144 76.134 306.57 77.7037L306.579 77.7374C307.804 82.2593 309.03 86.783 310.173 91.3304C312.199 99.4368 314.169 107.6 316.135 115.749L316.515 117.324C319.492 129.606 322.454 141.898 325.402 154.202C327.667 163.549 329.922 172.93 332.165 182.342C332.338 183.054 332.521 183.766 332.748 184.499C332.802 184.73 332.931 184.936 333.114 185.086C333.297 185.236 333.525 185.322 333.761 185.33C334.158 185.383 334.559 185.405 334.959 185.394C338.194 185.222 341.333 185.049 344.515 184.844C345.966 184.757 347.417 184.634 348.88 184.51C349.222 184.481 349.564 184.452 349.908 184.424C350.929 184.34 351.951 184.251 352.972 184.162C354.334 184.043 355.697 183.924 357.059 183.82C358.08 183.741 359.129 183.676 360.187 183.611C361.599 183.524 363.026 183.436 364.426 183.313C368.6 182.946 372.774 182.622 376.97 182.579C378.502 182.599 380.033 182.516 381.554 182.331C382.269 182.245 382.991 182.216 383.711 182.245C385.038 182.245 385.318 182.569 385.318 183.949C385.318 185.33 385.318 186.613 385.199 187.94C385.052 190.663 384.893 193.39 384.733 196.119C384.625 197.973 384.517 199.827 384.412 201.681H384.488V205.478C384.542 207.16 385.092 207.635 386.742 207.29C387.067 207.224 387.388 207.137 387.702 207.031C388.276 206.861 388.849 206.692 389.423 206.523C391.147 206.015 392.87 205.508 394.594 204.982C404.193 202.019 413.825 199.143 423.489 196.353C424.126 196.17 424.762 195.965 425.388 195.749C425.819 195.597 426.195 195.319 426.466 194.951C426.57 194.868 426.655 194.764 426.714 194.645C426.773 194.526 426.805 194.395 426.808 194.263C426.811 194.13 426.785 193.998 426.732 193.877C426.678 193.755 426.599 193.647 426.499 193.559ZM269.38 67.4504C268.814 67.448 268.272 67.2233 267.87 66.8248C256.146 57.7829 245.633 47.2703 236.591 35.5456C236.193 35.1438 235.968 34.6015 235.966 34.0356C235.965 33.7566 236.02 33.4803 236.127 33.2228C236.234 32.9653 236.392 32.7319 236.591 32.5364C245.627 20.7908 256.14 10.2596 267.87 1.20329C268.272 0.804765 268.814 0.58009 269.38 0.577707C269.659 0.57677 269.936 0.631632 270.193 0.739065C270.451 0.846499 270.684 1.00434 270.88 1.20329C282.609 10.2599 293.122 20.7911 302.159 32.5364C302.358 32.7319 302.515 32.9653 302.623 33.2228C302.73 33.4803 302.785 33.7566 302.784 34.0356C302.782 34.6015 302.557 35.1438 302.159 35.5456C293.116 47.27 282.604 57.7826 270.88 66.8248C270.684 67.0238 270.451 67.1816 270.193 67.289C269.936 67.3965 269.659 67.4513 269.38 67.4504ZM255.391 22.6026C254.172 22.1172 253.622 22.7212 253.299 23.6811V23.6596C252.304 26.8864 251.824 30.2496 251.875 33.6258C252.056 39.747 252.785 41.9321 253.175 43.1018C253.226 43.2553 253.272 43.3913 253.309 43.5164C253.946 45.0049 254.507 46.2668 255.812 45.7815C257.52 45.0977 259.1 44.1274 260.482 42.9124C262.945 40.8813 265.402 38.8405 267.858 36.8006C269.875 35.1249 271.892 33.4498 273.91 31.7814C275.66 30.1565 277.602 28.7511 279.692 27.5964C280.975 26.9708 281.633 27.2297 282.054 28.5995C283.061 32.2478 283.042 36.103 282 39.7414C281.687 40.917 281.018 41.1759 279.94 40.615C277.781 39.3544 275.769 37.8567 273.943 36.1497C273.155 35.4594 273.123 35.4594 272.368 36.1497C272.069 36.4072 271.788 36.6846 271.527 36.9802C271.106 37.4008 271.128 37.6489 271.624 38.0588C275.097 40.8739 278.645 43.6674 282.82 45.3824C284.384 46.0188 285.009 45.7168 285.527 44.1205C286.483 40.8497 286.941 37.4536 286.886 34.0464C286.921 30.4304 286.441 26.8278 285.462 23.3468C285.379 22.9991 285.185 22.6882 284.908 22.4621C284.631 22.236 284.288 22.1072 283.931 22.0956C283.449 22.078 282.975 22.2099 282.572 22.4731C281.147 23.2758 279.788 24.1882 278.505 25.202C277.085 26.3796 275.677 27.5756 274.268 28.7723C269.276 33.0117 264.273 37.2597 258.713 40.7337C257.807 41.273 257.225 41.0249 256.847 40.0649C255.526 36.1735 255.496 31.9595 256.761 28.0494C256.81 27.8407 256.939 27.6598 257.121 27.5466C257.303 27.4333 257.523 27.3969 257.732 27.4454C259.005 27.7643 260.185 28.3817 261.172 29.2467C260.469 29.9623 259.726 30.6158 258.981 31.2711C258.446 31.7416 257.909 32.213 257.386 32.709C257.025 33.0948 256.823 33.6038 256.823 34.1327C256.823 34.6616 257.025 35.1706 257.386 35.5564C257.629 35.4034 257.863 35.2378 258.087 35.0603C259.411 33.9026 260.726 32.7413 262.035 31.5764L262.069 31.5461C262.995 30.7134 262.995 30.7131 263.912 31.5764C264.631 32.2208 264.993 32.5444 265.357 32.5471C265.723 32.5499 266.093 32.2264 266.835 31.5764C267.59 30.9508 267.601 30.5626 266.835 29.9693C266.507 29.7143 266.18 29.4581 265.852 29.2017C262.591 26.6492 259.312 24.0826 255.391 22.6026Z" fill="white"/>
</svg>
